<svg stroke="currentColor" fill="none" stroke-width="2" viewBox="0 0 24 24" stroke-linecap="round" stroke-linejoin="round" height="200px" width="200px" xmlns="http://www.w3.org/2000/svg"><path stroke="none" d="M0 0h24v24H0z" fill="none"></path><path d="M6 6m-2 0a2 2 0 1 0 4 0a2 2 0 1 0 -4 0"></path><path d="M3 12h18"></path><path d="M12 3v18"></path><path d="M4 16l4 4"></path><path d="M4 20l4 -4"></path><path d="M16 4l4 4"></path><path d="M16 8l4 -4"></path><path d="M18 18m-2 0a2 2 0 1 0 4 0a2 2 0 1 0 -4 0"></path></svg>